<?xml version="1.0" encoding="utf-8"?>
<!-- Generator: Adobe Illustrator 21.1.0, SVG Export Plug-In . SVG Version: 6.00 Build 0)  -->
<svg version="1.1" id="Laag_1" xmlns="http://www.w3.org/2000/svg" xmlns:xlink="http://www.w3.org/1999/xlink" x="0px" y="0px"
	 viewBox="0 0 113.7 205.5" style="enable-background:new 0 0 113.7 205.5;" xml:space="preserve">
<style type="text/css">
	.st0{clip-path:url(#SVGID_2_);}
	.st1{clip-path:url(#SVGID_2_);fill:none;stroke:#000000;stroke-width:0.392;}
	
		.st2{clip-path:url(#SVGID_2_);fill:none;stroke:#000000;stroke-width:1.097;stroke-linecap:round;stroke-linejoin:round;stroke-miterlimit:10;}
	.st3{clip-path:url(#SVGID_2_);fill:#231F20;}
	
		.st4{clip-path:url(#SVGID_2_);fill:none;stroke:#231F20;stroke-width:0.588;stroke-linecap:round;stroke-linejoin:round;stroke-miterlimit:10;}
</style>
<g>
	<defs>
		<rect id="SVGID_1_" width="113.7" height="205.5"/>
	</defs>
	<clipPath id="SVGID_2_">
		<use xlink:href="#SVGID_1_"  style="overflow:visible;"/>
	</clipPath>
	<path class="st0" d="M101,150.9l-0.5,0.6c-0.4-0.4-1-0.6-1.7-0.6c-0.6,0-1.2,0.2-1.6,0.6l-0.5-0.6c0.6-0.5,1.3-0.8,2.1-0.8
		S100.4,150.4,101,150.9"/>
	<path class="st0" d="M100.2,152l-0.5,0.5c-0.2-0.2-0.5-0.3-0.8-0.3c-0.3,0-0.6,0.1-0.8,0.3l-0.5-0.5c0.3-0.3,0.8-0.5,1.3-0.5
		C99.4,151.5,99.8,151.6,100.2,152"/>
	<path class="st0" d="M98.5,153c0.1-0.2,0.2-0.3,0.4-0.3c0.2,0,0.4,0.1,0.4,0.3c0,0,0,0.1,0,0.1c0,0.2-0.2,0.4-0.4,0.4
		c-0.2,0-0.4-0.2-0.4-0.4C98.4,153.1,98.4,153,98.5,153"/>
	<line class="st1" x1="97.3" y1="165" x2="100.8" y2="165"/>
	<line class="st1" x1="99.2" y1="165" x2="99.2" y2="164.5"/>
	<rect x="98.6" y="163.6" class="st1" width="1.1" height="1"/>
	<line class="st1" x1="98.2" y1="165.6" x2="98.2" y2="165.1"/>
	<line class="st1" x1="100.2" y1="165.6" x2="100.2" y2="165.1"/>
	<rect x="97.6" y="165.5" class="st1" width="1.1" height="1"/>
	<rect x="99.6" y="165.5" class="st1" width="1.1" height="1"/>
	<path class="st2" d="M112.3,166.4v0.3 M98.5,1.3l2.3,0l2.3,0.2l2,0.4l1.9,0.7l1.2,0.7l1.1,0.9l1.1,1.3l0.8,1.5l0.6,1.7l0.4,1.8
		l0.2,2.3l0,2.3 M98.5,1.4L98.5,1.4L98.5,1.4 M98.5,1.4H15.1 M15.1,4l41.7,0 M56.8,4l41.7,0 M15.1,1.4l-2.3,0l-2.3,0.2l-2,0.4
		L6.6,2.8L5.4,3.5L4.3,4.4l-1,1.3L2.5,7.1L1.9,8.9l-0.4,1.8l-0.2,1.5l-0.1,3 M98.5,4l2.4,0l2.4,0.3l1.4,0.3l1.3,0.6l0.8,0.5l0.7,0.7
		l0.6,0.8l0.5,0.9l0.5,1.3l0.3,1.3l0.2,2.2l0,2.2 M4,15.1l0-2.2l0.2-2.2l0.3-1.3L5,8l0.5-0.9L6,6.4l0.7-0.7l0.8-0.5l1.3-0.6l1.4-0.3
		l2.4-0.3l2.4,0 M112.4,15.2l-0.1,135.2 M112.3,153.1l0-2.7 M112.3,153.1l0,3.9 M112.3,159.7v-2.7 M112.3,159.7l0,3.9 M112.3,166.4
		l0-2.7 M112.3,166.6l0,23.8 M15.2,204.2L15.2,204.2L15.2,204.2l0.1,0l0,0l0,0l0,0l0,0l0,0 M98.3,204L98.3,204L98.3,204L98.3,204
		l0.1,0.1l0,0l0,0l0,0l0,0 M98.5,204.2L98.5,204.2 M15.2,204.2L15.2,204.2 M15.1,204.2l-2.3,0l-2.3-0.2l-1.7-0.4L7,202.9l-1.4-0.7
		l-1.2-1l-0.9-1l-0.7-1.2l-0.7-1.9l-0.4-2l-0.2-2.3l0-2.3 M112.3,190.4L112.3,190.4l0,2.3l-0.2,2.3l-0.4,1.9l-0.7,1.9l-0.7,1.2
		l-0.9,1.1l-1.2,1l-1.4,0.8l-1.7,0.6l-1.8,0.4l-2.3,0.2l-2.4,0 M109.7,15.1l0,41.7 M109.6,148.6l0,1.8 M109.6,56.8l0,26.6l0,26.6
		l0,38.6 M109.6,153.1l0,1.9l0,1.9 M98.3,204l-0.7-1.8 M16.1,202.2l-0.7,1.8 M109.6,159.8v1.9l0,1.9 M4.1,148.6l0-38.6l0-26.6
		l0-26.6 M4,56.8l0-41.7 M1.3,15.2l0,175.2 M109.6,150.4l2.7,0 M109.6,150.4L109.6,150.4h-0.1 M112.3,150.4L112.3,150.4L112.3,150.4
		L112.3,150.4L112.3,150.4 M109.6,166.4l0,23.9 M4.1,190.4l0-41.7 M112.2,153.1l-2.7,0 M112.2,153.1L112.2,153.1L112.2,153.1
		L112.2,153.1L112.2,153.1 M109.4,153.1L109.4,153.1h0.1 M112.3,157.1L112.3,157.1L112.3,157.1L112.3,157.1L112.3,157.1 M109.6,157
		l2.7,0 M109.6,157L109.6,157l-0.1,0 M112.2,159.7l-2.7,0 M112.2,159.7L112.2,159.7L112.2,159.7L112.2,159.7L112.2,159.7
		 M109.4,159.8L109.4,159.8h0.1 M98.5,201.3h-1.5 M16.6,201.3h-1.5 M112.3,163.7L112.3,163.7L112.3,163.7L112.3,163.7L112.3,163.7
		 M109.6,163.7l2.7,0 M109.6,163.7L109.6,163.7l-0.1,0 M109.4,166.4L109.4,166.4l0.1,0 M112.2,166.4l-2.7,0 M112.2,166.4
		L112.2,166.4L112.2,166.4L112.2,166.4L112.2,166.4 M97.6,202.2l-0.2-0.3l-0.4-0.6 M16.6,201.3l-0.2,0.3l-0.3,0.6 M94.5,200.2H56.8
		 M56.8,200.2H19.1 M19.1,200.2l-1.1,0.2l-1,0.5l-0.5,0.5 M97,201.3l-0.5-0.5l-1-0.5l-1.1-0.2 M15.1,201.3l-2.1,0l-2.1-0.2l-1.4-0.3
		l-1.4-0.5l-0.8-0.4l-0.8-0.6l-0.6-0.7l-0.5-0.8l-0.5-1.3l-0.4-1.4l-0.3-2.4l0-2.4 M109.5,190.4l0,2.4l-0.3,2.4l-0.3,1.4l-0.5,1.3
		l-0.5,0.8l-0.7,0.7l-0.7,0.6l-0.9,0.4l-1.4,0.5l-1.4,0.3l-2.1,0.2l-2.1,0 M109.4,150.4l-5.6,0 M103.9,166.4l5.6,0 M103.9,163.7
		L103.9,163.7v2.7v0.1 M109.4,163.7l-5.6,0 M103.9,159.8l5.6,0 M103.9,157L103.9,157v2.7v0.1 M109.4,157l-5.6,0 M103.9,153.1l5.6,0
		 M103.9,150.4L103.9,150.4v2.7v0.1"/>
	<polygon class="st3" points="49.9,204.3 50,204.3 50.1,204.2 50.2,204.1 50.2,204.1 50.4,200.2 45.7,200.2 46,204.1 46,204.2 
		46.1,204.3 46.2,204.3 46.3,204.3 46.3,204.3 46.6,204.3 46.9,204.3 47.2,204.3 47.6,204.3 48.1,204.3 48.5,204.3 49,204.3 
		49.3,204.3 49.6,204.3 49.9,204.3 	"/>
	<polyline class="st4" points="49.9,204.3 50,204.3 50.1,204.2 50.2,204.1 50.2,204.1 50.4,200.2 45.7,200.2 46,204.1 46,204.2 
		46.1,204.3 46.2,204.3 46.3,204.3 46.3,204.3 46.6,204.3 46.9,204.3 47.2,204.3 47.6,204.3 48.1,204.3 48.5,204.3 49,204.3 
		49.3,204.3 49.6,204.3 49.9,204.3 49.9,204.3 	"/>
	<path class="st0" d="M39.9,183.2h-0.5v-4.5c0-0.7,0.2-1.2,0.7-1.7s1-0.7,1.7-0.7c0.7,0,1.2,0.2,1.7,0.7s0.7,1,0.7,1.7
		c0,0.7-0.2,1.2-0.7,1.7c-0.5,0.5-1,0.7-1.7,0.7c-0.7,0-1.2-0.2-1.7-0.7l-0.2-0.2V183.2z M39.9,178.7c0,0.5,0.2,1,0.6,1.3
		c0.3,0.4,0.8,0.6,1.3,0.6c0.5,0,1-0.2,1.3-0.6c0.4-0.4,0.6-0.8,0.5-1.3c0-0.5-0.2-1-0.5-1.3c-0.4-0.4-0.8-0.5-1.3-0.6
		c-0.5,0-1,0.2-1.3,0.6C40.1,177.7,39.9,178.2,39.9,178.7"/>
	<rect x="44.9" y="174.2" class="st0" width="0.5" height="6.9"/>
	<path class="st0" d="M50.6,181.1h-0.5v-0.8c-0.5,0.5-1.1,0.8-1.7,0.8c-0.6,0-1.1-0.2-1.6-0.7c-0.4-0.4-0.7-1-0.7-1.6v-2.6h0.5v2.6
		c0,0.5,0.2,0.9,0.5,1.2c0.3,0.3,0.7,0.5,1.2,0.5c0.5,0,0.9-0.2,1.2-0.5c0.3-0.3,0.5-0.8,0.5-1.2v-2.6h0.5V181.1z"/>
	<path class="st0" d="M55.6,180.2c-0.5,0.6-1.2,0.9-1.9,0.9c-0.7,0-1.2-0.2-1.7-0.7c-0.5-0.5-0.7-1-0.7-1.7s0.2-1.2,0.7-1.7
		c0.5-0.5,1-0.7,1.7-0.7c0.7,0,1.2,0.2,1.7,0.7c0.5,0.5,0.7,1,0.7,1.7v2.4c0,0.5-0.2,0.9-0.5,1.3c-0.5,0.5-1.1,0.8-1.8,0.8
		s-1.3-0.3-1.8-0.8c-0.2-0.2-0.3-0.3-0.4-0.5c0,0,0,0,0-0.1l0.5-0.3c0,0,0,0,0,0.1c0.1,0.1,0.2,0.3,0.3,0.4c0.2,0.2,0.4,0.3,0.7,0.5
		c0.3,0.1,0.5,0.2,0.8,0.1c0.5,0,1.1-0.2,1.5-0.6c0.3-0.3,0.4-0.6,0.4-0.9L55.6,180.2z M53.8,176.8c-0.5,0-1,0.2-1.3,0.5
		c-0.4,0.4-0.6,0.8-0.6,1.3s0.2,1,0.6,1.3c0.7,0.7,1.9,0.7,2.7,0c0.4-0.4,0.6-0.8,0.6-1.3c0-0.5-0.2-1-0.5-1.3
		C54.7,177,54.3,176.8,53.8,176.8"/>
	<polygon class="st0" points="59.9,176.3 61.1,180 62.4,176.2 62.9,176.4 61.3,181.1 60.9,181.1 59.7,177.4 58.5,181.1 58.1,181.1 
		56.5,176.4 57,176.2 58.3,180 59.5,176.3 	"/>
	<path class="st0" d="M64.2,175.1c0,0.2-0.2,0.4-0.4,0.4c-0.1,0-0.2,0-0.3-0.1c-0.1-0.1-0.1-0.4,0-0.5l0,0c0.1-0.1,0.4-0.1,0.5,0
		l0,0C64.1,174.9,64.2,175,64.2,175.1 M63.5,176.3h0.5v4.8h-0.5V176.3z"/>
	<path class="st0" d="M72.9,179.7l0.4,0.3c-0.1,0.2-0.4,0.5-0.5,0.5c-0.4,0.4-1,0.6-1.6,0.6c-0.7,0-1.2-0.2-1.7-0.7
		c-0.5-0.5-0.7-1-0.7-1.7c0-0.7,0.2-1.2,0.7-1.7c0.5-0.5,1-0.7,1.7-0.7c0.7,0,1.2,0.2,1.7,0.7c0.5,0.5,0.7,1,0.7,1.7v0.3h-4.3
		c0.1,0.4,0.3,0.8,0.5,1.1c0.3,0.4,0.8,0.6,1.3,0.6c0.4,0,0.9-0.2,1.2-0.4C72.7,180,72.8,179.9,72.9,179.7 M73.2,178.4
		c-0.1-0.4-0.3-0.8-0.5-1.1c-0.4-0.4-0.8-0.6-1.3-0.6c-0.5,0-1,0.2-1.3,0.6c-0.3,0.3-0.5,0.6-0.5,1.1H73.2z"/>
	<path class="st0" d="M66.6,181.1c-0.3,0-0.7-0.1-0.9-0.2c-0.2-0.1-0.5-0.2-0.7-0.4l-0.1,0l0.3-0.5c0,0,0.2,0.2,0.3,0.2
		c0.1,0.1,0.1,0.1,0.2,0.1c0.1,0.1,0.2,0.1,0.3,0.1c0.2,0.1,0.3,0.1,0.5,0.1c0.2,0,0.3,0,0.5-0.1c0.1,0,0.2-0.1,0.4-0.2
		c0.1-0.1,0.2-0.2,0.2-0.3c0-0.1,0.1-0.2,0.1-0.4c0-0.1,0-0.2-0.1-0.3c-0.1-0.1-0.2-0.2-0.3-0.2c-0.1-0.1-0.3-0.1-0.4-0.2
		c-0.2,0-0.3-0.1-0.5-0.1c-0.2,0-0.3-0.1-0.5-0.2c-0.2-0.1-0.3-0.1-0.5-0.2c-0.1-0.1-0.2-0.2-0.3-0.3c-0.1-0.1-0.1-0.3-0.1-0.5
		c0-0.2,0-0.3,0.1-0.5c0.1-0.2,0.2-0.3,0.3-0.4c0.2-0.1,0.3-0.2,0.5-0.3c0.2-0.1,0.5-0.1,0.7-0.1c0.3,0,0.6,0,0.8,0.1
		c0.2,0.1,0.5,0.2,0.7,0.4l0.1,0l-0.3,0.4c0,0-0.2-0.1-0.2-0.2c-0.1,0-0.1-0.1-0.2-0.1c-0.1,0-0.2-0.1-0.3-0.1
		c-0.2,0-0.3-0.1-0.5-0.1c-0.1,0-0.3,0-0.4,0.1c-0.1,0-0.2,0.1-0.3,0.2c-0.1,0.1-0.2,0.2-0.2,0.2c0,0.1-0.1,0.2-0.1,0.3
		c0,0.1,0,0.2,0.1,0.3c0.1,0.1,0.2,0.2,0.3,0.2c0.1,0.1,0.3,0.1,0.4,0.2c0.2,0,0.3,0.1,0.5,0.1c0.2,0,0.3,0.1,0.5,0.2
		c0.2,0.1,0.3,0.1,0.4,0.2c0.1,0.1,0.2,0.2,0.3,0.3c0.1,0.2,0.1,0.3,0.1,0.5c0,0.2,0,0.4-0.1,0.6c-0.1,0.2-0.2,0.3-0.3,0.5
		c-0.2,0.1-0.4,0.2-0.6,0.3C67.2,181.1,66.9,181.1,66.6,181.1"/>
</g>
</svg>
