<?xml version="1.0" encoding="utf-8"?>
<!-- Generator: Adobe Illustrator 21.1.0, SVG Export Plug-In . SVG Version: 6.00 Build 0)  -->
<svg version="1.1" id="Laag_1" xmlns="http://www.w3.org/2000/svg" xmlns:xlink="http://www.w3.org/1999/xlink" x="0px" y="0px"
	 viewBox="0 0 600.7 600.6" style="enable-background:new 0 0 600.7 600.6;" xml:space="preserve">
<g id="_x23_1e1e1eff">
</g>
<g id="_x23_dcdcdcff">
	<path d="M26.8,0.7C29.9,0.2,33.1,0,36.3,0c54,0,108,0,162,0c6.2,0,12.6,0.8,18.1,3.9c8.7,4.7,15.6,13.3,17.2,23.2
		c0.9,5.6,0.6,11.3,0.6,17c0,59,0,118,0,177c0,6.2,0.3,12.4-0.6,18.6c-1.8,11.2-10.1,21-20.6,25.2c-5,2-10.4,2.3-15.6,2.3
		c-54,0-108,0-162,0c-8.3,0.1-16.9-2.2-23.2-7.8C4.3,252.9-0.1,243,0.1,233C0,169,0.1,105,0,41c0-6.9-0.3-14.2,2.6-20.6
		C6.9,10.5,16.1,2.7,26.8,0.7 M34.4,33.4C34,41.9,34.3,50.5,34.2,59c0.1,57.9-0.2,115.9,0.1,173.8c55.2,0,110.4,0.1,165.7,0
		c0-66.4,0.1-132.9,0-199.3C144.8,33.4,89.6,33.4,34.4,33.4z"/>
	<path d="M292.8,0.8c3.1-0.6,6.3-0.8,9.5-0.8c87.3,0,174.7,0,262,0c6,0,12.2,0.6,17.6,3.4c9.4,4.8,16.8,14,18.2,24.6
		c0.8,5.9,0.4,12,0.5,17.9c0,59.3,0,118.7,0,178c0,7.8,0.4,16.1-3,23.3c-4.4,9.6-13.4,17.1-23.8,18.9c-6.1,1.1-12.3,0.7-18.5,0.7
		c-84.7,0-169.4,0-254,0c-8.1,0.1-16.3-2.2-22.5-7.5c-8-6.3-12.5-16.3-12.4-26.4c-0.1-64.7,0-129.4-0.1-194.1
		c0-6.4,0.1-13.1,2.8-19.1C273.6,10.4,282.5,2.9,292.8,0.8 M300.7,33.4c-0.1,66.4-0.1,132.9,0,199.3c88.5,0.1,177.1,0.1,265.7,0
		c0.3-43.9,0-87.9,0.1-131.8c-0.1-22.5,0.3-45.1-0.2-67.6C477.7,33.4,389.2,33.4,300.7,33.4z"/>
	<path d="M26.8,300.8c3.2-0.6,6.4-0.7,9.6-0.8c98.7,0,197.3,0,296,0c8.1-0.2,16.3,2.2,22.4,7.6c7.9,6.3,12.6,16.2,12.3,26.4
		c0,77,0,154.1,0,231.1c0,6.6-1.1,13.3-4.6,19c-5.9,10.1-17.3,16.8-29.1,16.5c-99.4,0-198.7,0-298.1,0c-8.7,0.2-17.6-2.5-24-8.5
		C3.8,585.6-0.2,575.8,0,566c-0.1-74.7,0-149.3,0-224c0-7.3-0.4-14.9,2.6-21.6C6.9,310.5,16.1,302.7,26.8,300.8 M34.4,333.4
		c-0.5,12.2-0.1,24.4-0.2,36.6c0.1,65.4-0.1,130.9,0.1,196.3c47.3,0.3,94.7,0,142,0.1c52.4-0.1,104.8,0.1,157.2-0.1
		c0.2-54.8,0-109.5,0.1-164.3c-0.1-22.9,0.3-45.8-0.2-68.6C233.7,333.4,134.1,333.4,34.4,333.4z"/>
	<path d="M426.8,300.8c3.1-0.6,6.4-0.7,9.6-0.8c41.7,0,83.3,0,125,0c6.7,0,13.8,0.1,20,3.1c10,4.8,17.9,14.7,19,25.9
		c0.6,6,0.3,12,0.3,18c0,72.7,0,145.3,0,218c0.1,7.9-1.8,16.1-6.9,22.4c-6.3,8.5-16.8,13.4-27.4,13.2c-43,0.1-86.1,0-129.1,0
		c-6.5,0-13.1-0.6-18.9-3.7c-8.4-4.4-15.1-12.4-17.3-21.7c-0.9-4-1-8.2-1.1-12.3c0.1-76.7-0.1-153.3,0.1-230
		C399.8,317.7,411.8,303.5,426.8,300.8 M434.4,333.4c-0.5,22.2-0.1,44.4-0.2,66.6c0.1,55.4-0.1,110.9,0.1,166.3
		c44,0.2,88,0.2,132.1,0c0.2-54.1,0-108.2,0.1-162.3c-0.1-23.5,0.3-47.1-0.2-70.6C522.3,333.4,478.4,333.4,434.4,333.4z"/>
</g>
</svg>
