<?xml version="1.0" encoding="UTF-8"?>
<!DOCTYPE svg PUBLIC "-//W3C//DTD SVG 1.1//EN" "http://www.w3.org/Graphics/SVG/1.1/DTD/svg11.dtd">
<!-- Creator: CorelDRAW X7 -->
<svg xmlns="http://www.w3.org/2000/svg" xml:space="preserve" width="38.4112mm" height="32.3703mm" version="1.1" style="shape-rendering:geometricPrecision; text-rendering:geometricPrecision; image-rendering:optimizeQuality; fill-rule:evenodd; clip-rule:evenodd"
viewBox="0 0 401 338"
 xmlns:xlink="http://www.w3.org/1999/xlink">
 <defs>
  <style type="text/css">
   <![CDATA[
    .fil0 {fill:black}
   ]]>
  </style>
 </defs>
 <g id="Layer_x0020_1">
  <metadata id="CorelCorpID_0Corel-Layer"/>
  <path class="fil0" d="M219 219c48,-21 72,-77 54,-131 -6,-19 -17,-38 -31,-51 -14,-14 -32,-25 -51,-31 -10,-3 -18,-5 -28,-5 -20,-2 -40,1 -58,7 -7,2 -17,6 -23,9 -10,6 -14,8 -24,16 -2,1 -4,3 -5,4 -9,8 -16,15 -24,26 -43,58 -36,141 5,198 2,3 12,16 15,18 3,3 6,6 8,9 3,3 6,5 9,7 10,9 26,19 41,26 66,31 147,16 204,-24 4,-3 20,-16 23,-18 1,-2 2,-3 4,-5 4,-4 3,-3 8,-8l7 -9c7,-8 15,-20 21,-29 16,-32 28,-68 26,-105 0,1 -3,18 -3,22 -8,34 -21,62 -42,89 -5,6 -8,9 -13,14 -4,5 -9,8 -13,13 -2,2 -5,4 -7,6 -43,34 -94,50 -151,44 -29,-4 -56,-16 -74,-31 -34,-25 -52,-55 -60,-97 -3,-13 -4,-35 -1,-48 5,-26 12,-39 27,-58 7,-8 15,-15 24,-22 5,-3 11,-6 17,-9 29,-12 58,-15 87,-3 9,4 17,10 24,16 11,9 21,24 26,39 5,14 6,31 3,46 -11,57 -93,80 -121,25 -10,-18 -9,-44 7,-59 1,-1 2,-2 4,-3 21,-18 55,-12 64,14 16,46 -50,64 -56,20 -2,18 14,32 34,31 28,-3 43,-33 32,-59 -10,-25 -37,-38 -65,-31 -31,8 -55,40 -47,81 6,33 34,59 67,64 20,3 40,-1 56,-8z"/>
 </g>
</svg>
